# Blender 4.3.0
# www.blender.org
mtllib new_room.mtl
o Plane
v 8.048188 -0.239046 14.148733
v -8.032195 -0.239041 14.148733
v 8.048188 -0.239046 -14.094355
v -8.032195 -0.239041 -14.094355
v 8.048188 -0.139046 14.148733
v -8.032195 -0.139041 14.148733
v 8.048188 -0.139046 -14.094355
v -8.032195 -0.139041 -14.094355
vn -0.0000 -1.0000 -0.0000
vn -0.0000 1.0000 -0.0000
vn 1.0000 -0.0000 -0.0000
vn -0.0000 -0.0000 1.0000
vn -1.0000 -0.0000 -0.0000
vn -0.0000 -0.0000 -1.0000
vt 0.003060 0.003060
vt 0.996940 0.003060
vt 0.996940 0.996940
vt 0.003060 0.996940
vt -0.006232 -0.002372
vt -0.006232 1.002372
vt 0.998511 1.002372
vt 0.998511 -0.002372
vt 0.000000 0.000000
vt 0.000000 1.000000
vt 1.000000 0.000000
vt 1.000000 1.000000
s 0
usemtl Material.001
f 1/1/1 2/2/1 4/3/1 3/4/1
f 5/5/2 7/6/2 8/7/2 6/8/2
f 1/9/3 3/10/3 7/10/3 5/9/3
f 2/11/4 1/9/4 5/9/4 6/11/4
f 4/12/5 2/11/5 6/11/5 8/12/5
f 3/10/6 4/12/6 8/12/6 7/10/6
o Plane.004
v -8.032195 12.738859 14.102251
v 8.048188 12.738859 14.102251
v -8.032195 -0.292781 14.102251
v 8.048188 -0.292781 14.102251
v -8.032195 12.738859 14.002252
v 8.048188 12.738859 14.002252
v -8.032195 -0.292781 14.002251
v 8.048188 -0.292781 14.002251
vn -0.0000 -0.0000 1.0000
vn -0.0000 -0.0000 -1.0000
vn -1.0000 -0.0000 -0.0000
vn -0.0000 1.0000 -0.0000
vn 1.0000 -0.0000 -0.0000
vn -0.0000 -1.0000 -0.0000
vt 0.199527 0.199527
vt 0.800473 0.199527
vt 0.800473 0.800473
vt 0.199527 0.800473
s 0
usemtl Material.004
f 9/13/7 11/16/7 12/15/7 10/14/7
f 13/13/8 14/14/8 16/15/8 15/16/8
f 9/13/9 13/13/9 15/16/9 11/16/9
f 10/14/10 14/14/10 13/13/10 9/13/10
f 12/15/11 16/15/11 14/14/11 10/14/11
f 11/16/12 15/16/12 16/15/12 12/15/12
o Plane.005
v -8.032195 12.738859 -13.966230
v 8.048188 12.738859 -13.966230
v -8.032195 -0.292781 -13.966230
v 8.048188 -0.292781 -13.966230
v -8.032195 12.738859 -14.066230
v 8.048188 12.738859 -14.066230
v -8.032195 -0.292781 -14.066231
v 8.048188 -0.292781 -14.066231
vn -0.0000 -0.0000 1.0000
vn -0.0000 -0.0000 -1.0000
vn -1.0000 -0.0000 -0.0000
vn -0.0000 1.0000 -0.0000
vn 1.0000 -0.0000 -0.0000
vn -0.0000 -1.0000 -0.0000
vt 0.000000 0.000000
vt 1.000000 0.000000
vt 1.000000 1.000000
vt 0.000000 1.000000
s 0
usemtl Material.002
f 17/17/13 19/20/13 20/19/13 18/18/13
f 21/17/14 22/18/14 24/19/14 23/20/14
f 17/17/15 21/17/15 23/20/15 19/20/15
f 18/18/16 22/18/16 21/17/16 17/17/16
f 20/19/17 24/19/17 22/18/17 18/18/17
f 19/20/18 23/20/18 24/19/18 20/19/18
o Plane.006
v -8.032195 12.455827 14.148733
v 8.048188 12.455827 14.148733
v -8.032195 12.455827 -14.094355
v 8.048188 12.455827 -14.094355
v -8.032195 12.355826 14.148733
v 8.048188 12.355826 14.148733
v -8.032195 12.355826 -14.094355
v 8.048188 12.355826 -14.094355
vn -0.0000 1.0000 -0.0000
vn -0.0000 -1.0000 -0.0000
vn -1.0000 -0.0000 -0.0000
vn -0.0000 -0.0000 1.0000
vn 1.0000 -0.0000 -0.0000
vn -0.0000 -0.0000 -1.0000
vt 0.000000 0.000000
vt 1.000000 0.000000
vt 1.000000 1.000000
vt 0.000000 1.000000
s 0
usemtl Material.003
f 25/21/19 26/22/19 28/23/19 27/24/19
f 29/21/20 31/24/20 32/23/20 30/22/20
f 25/21/21 27/24/21 31/24/21 29/21/21
f 26/22/22 25/21/22 29/21/22 30/22/22
f 28/23/23 26/22/23 30/22/23 32/23/23
f 27/24/24 28/23/24 32/23/24 31/24/24
o Empty.001
v -2.345512 -0.129043 1.717705
v 2.654488 -0.129045 1.717705
v -2.345512 -0.129043 -1.836216
v 2.654488 -0.129045 -1.836216
v -2.345512 -0.129043 1.394622
v -2.345512 -0.129043 1.071538
v -2.345512 -0.129043 0.748454
v -2.345512 -0.129043 0.425370
v -2.345512 -0.129043 0.102286
v -2.345512 -0.129043 -0.220797
v -2.345512 -0.129043 -0.543881
v -2.345512 -0.129043 -0.866965
v -2.345512 -0.129043 -1.190049
v -2.345512 -0.129043 -1.513133
v -1.890967 -0.129043 1.717705
v -1.436421 -0.129043 1.717705
v -0.981876 -0.129043 1.717705
v -0.527330 -0.129044 1.717705
v -0.072785 -0.129044 1.717705
v 0.381761 -0.129044 1.717705
v 0.836306 -0.129044 1.717705
v 1.290852 -0.129044 1.717705
v 1.745397 -0.129044 1.717705
v 2.199942 -0.129044 1.717705
v 2.654488 -0.129045 1.394622
v 2.654488 -0.129045 1.071538
v 2.654488 -0.129045 0.748454
v 2.654488 -0.129045 0.425370
v 2.654488 -0.129045 0.102286
v 2.654488 -0.129045 -0.220797
v 2.654488 -0.129045 -0.543881
v 2.654488 -0.129045 -0.866965
v 2.654488 -0.129045 -1.190049
v 2.654488 -0.129045 -1.513133
v -1.890967 -0.129043 -1.836216
v -1.436421 -0.129043 -1.836216
v -0.981876 -0.129043 -1.836216
v -0.527330 -0.129044 -1.836216
v -0.072785 -0.129044 -1.836216
v 0.381761 -0.129044 -1.836216
v 0.836306 -0.129044 -1.836216
v 1.290852 -0.129044 -1.836216
v 1.745397 -0.129044 -1.836216
v 2.199942 -0.129044 -1.836216
v -1.890967 -0.129043 1.394622
v -1.890967 -0.129043 1.071538
v -1.890967 -0.129043 0.748454
v -1.890967 -0.129043 0.425370
v -1.890967 -0.129043 0.102286
v -1.890967 -0.129043 -0.220797
v -1.890967 -0.129043 -0.543881
v -1.890967 -0.129043 -0.866965
v -1.890967 -0.129043 -1.190049
v -1.890967 -0.129043 -1.513133
v -1.436421 -0.129043 1.394622
v -1.436421 -0.129043 1.071538
v -1.436421 -0.129043 0.748454
v -1.436421 -0.129043 0.425370
v -1.436421 -0.129043 0.102286
v -1.436421 -0.129043 -0.220797
v -1.436421 -0.129043 -0.543881
v -1.436421 -0.129043 -0.866965
v -1.436421 -0.129043 -1.190049
v -1.436421 -0.129043 -1.513133
v -0.981876 -0.129043 1.394622
v -0.981876 -0.129043 1.071538
v -0.981876 -0.129043 0.748454
v -0.981876 -0.129043 0.425370
v -0.981876 -0.129043 0.102286
v -0.981876 -0.129043 -0.220797
v -0.981876 -0.129043 -0.543881
v -0.981876 -0.129043 -0.866965
v -0.981876 -0.129043 -1.190049
v -0.981876 -0.129043 -1.513133
v -0.527330 -0.129044 1.394622
v -0.527330 -0.129044 1.071538
v -0.527330 -0.129044 0.748454
v -0.527330 -0.129044 0.425370
v -0.527330 -0.129044 0.102286
v -0.527330 -0.129044 -0.220797
v -0.527330 -0.129044 -0.543881
v -0.527330 -0.129044 -0.866965
v -0.527330 -0.129044 -1.190049
v -0.527330 -0.129044 -1.513133
v -0.072785 -0.129044 1.394622
v -0.072785 -0.129044 1.071538
v -0.072785 -0.129044 0.748454
v -0.072785 -0.129044 0.425370
v -0.072785 -0.129044 0.102286
v -0.072785 -0.129044 -0.220797
v -0.072785 -0.129044 -0.543881
v -0.072785 -0.129044 -0.866965
v -0.072785 -0.129044 -1.190049
v -0.072785 -0.129044 -1.513133
v 0.381761 -0.129044 1.394622
v 0.381761 -0.129044 1.071538
v 0.381761 -0.129044 0.748454
v 0.381761 -0.129044 0.425370
v 0.381761 -0.129044 0.102286
v 0.381761 -0.129044 -0.220797
v 0.381761 -0.129044 -0.543881
v 0.381761 -0.129044 -0.866965
v 0.381761 -0.129044 -1.190049
v 0.381761 -0.129044 -1.513133
v 0.836306 -0.129044 1.394622
v 0.836306 -0.129044 1.071538
v 0.836306 -0.129044 0.748454
v 0.836306 -0.129044 0.425370
v 0.836306 -0.129044 0.102286
v 0.836306 -0.129044 -0.220797
v 0.836306 -0.129044 -0.543881
v 0.836306 -0.129044 -0.866965
v 0.836306 -0.129044 -1.190049
v 0.836306 -0.129044 -1.513133
v 1.290852 -0.129044 1.394622
v 1.290852 -0.129044 1.071538
v 1.290852 -0.129044 0.748454
v 1.290852 -0.129044 0.425370
v 1.290852 -0.129044 0.102286
v 1.290852 -0.129044 -0.220797
v 1.290852 -0.129044 -0.543881
v 1.290852 -0.129044 -0.866965
v 1.290852 -0.129044 -1.190049
v 1.290852 -0.129044 -1.513133
v 1.745397 -0.129044 1.394622
v 1.745397 -0.129044 1.071538
v 1.745397 -0.129044 0.748454
v 1.745397 -0.129044 0.425370
v 1.745397 -0.129044 0.102286
v 1.745397 -0.129044 -0.220797
v 1.745397 -0.129044 -0.543881
v 1.745397 -0.129044 -0.866965
v 1.745397 -0.129044 -1.190049
v 1.745397 -0.129044 -1.513133
v 2.199942 -0.129044 1.394622
v 2.199942 -0.129044 1.071538
v 2.199942 -0.129044 0.748454
v 2.199942 -0.129044 0.425370
v 2.199942 -0.129044 0.102286
v 2.199942 -0.129044 -0.220797
v 2.199942 -0.129044 -0.543881
v 2.199942 -0.129044 -0.866965
v 2.199942 -0.129044 -1.190049
v 2.199942 -0.129044 -1.513133
vn -0.0000 1.0000 -0.0000
vt 0.909091 0.909091
vt 1.000000 0.909091
vt 1.000000 1.000000
vt 0.909091 1.000000
vt 0.000000 0.909091
vt 0.090909 0.909091
vt 0.090909 1.000000
vt 0.000000 1.000000
vt 0.181818 0.909091
vt 0.181818 1.000000
vt 0.272727 0.909091
vt 0.272727 1.000000
vt 0.363636 0.909091
vt 0.363636 1.000000
vt 0.454545 0.909091
vt 0.454545 1.000000
vt 0.545455 0.909091
vt 0.545455 1.000000
vt 0.636364 0.909091
vt 0.636364 1.000000
vt 0.727273 0.909091
vt 0.727273 1.000000
vt 0.818182 0.909091
vt 0.818182 1.000000
vt 0.000000 0.000000
vt 0.090909 0.000000
vt 0.090909 0.090909
vt 0.000000 0.090909
vt 0.090909 0.181818
vt 0.000000 0.181818
vt 0.090909 0.272727
vt 0.000000 0.272727
vt 0.090909 0.363636
vt 0.000000 0.363636
vt 0.090909 0.454545
vt 0.000000 0.454545
vt 0.090909 0.545455
vt 0.000000 0.545455
vt 0.090909 0.636364
vt 0.000000 0.636364
vt 0.090909 0.727273
vt 0.000000 0.727273
vt 0.090909 0.818182
vt 0.000000 0.818182
vt 0.181818 0.000000
vt 0.181818 0.090909
vt 0.181818 0.181818
vt 0.181818 0.272727
vt 0.181818 0.363636
vt 0.181818 0.454545
vt 0.181818 0.545455
vt 0.181818 0.636364
vt 0.181818 0.727273
vt 0.181818 0.818182
vt 0.272727 0.000000
vt 0.272727 0.090909
vt 0.272727 0.181818
vt 0.272727 0.272727
vt 0.272727 0.363636
vt 0.272727 0.454545
vt 0.272727 0.545455
vt 0.272727 0.636364
vt 0.272727 0.727273
vt 0.272727 0.818182
vt 0.363636 0.000000
vt 0.363636 0.090909
vt 0.363636 0.181818
vt 0.363636 0.272727
vt 0.363636 0.363636
vt 0.363636 0.454545
vt 0.363636 0.545455
vt 0.363636 0.636364
vt 0.363636 0.727273
vt 0.363636 0.818182
vt 0.454545 0.000000
vt 0.454545 0.090909
vt 0.454545 0.181818
vt 0.454545 0.272727
vt 0.454545 0.363636
vt 0.454545 0.454545
vt 0.454545 0.545455
vt 0.454545 0.636364
vt 0.454545 0.727273
vt 0.454545 0.818182
vt 0.545455 0.000000
vt 0.545455 0.090909
vt 0.545455 0.181818
vt 0.545455 0.272727
vt 0.545455 0.363636
vt 0.545455 0.454545
vt 0.545455 0.545455
vt 0.545455 0.636364
vt 0.545455 0.727273
vt 0.545455 0.818182
vt 0.636364 0.000000
vt 0.636364 0.090909
vt 0.636364 0.181818
vt 0.636364 0.272727
vt 0.636364 0.363636
vt 0.636364 0.454545
vt 0.636364 0.545455
vt 0.636364 0.636364
vt 0.636364 0.727273
vt 0.636364 0.818182
vt 0.727273 0.000000
vt 0.727273 0.090909
vt 0.727273 0.181818
vt 0.727273 0.272727
vt 0.727273 0.363636
vt 0.727273 0.454545
vt 0.727273 0.545455
vt 0.727273 0.636364
vt 0.727273 0.727273
vt 0.727273 0.818182
vt 0.818182 0.000000
vt 0.818182 0.090909
vt 0.818182 0.181818
vt 0.818182 0.272727
vt 0.818182 0.363636
vt 0.818182 0.454545
vt 0.818182 0.545455
vt 0.818182 0.636364
vt 0.818182 0.727273
vt 0.818182 0.818182
vt 0.909091 0.000000
vt 0.909091 0.090909
vt 0.909091 0.181818
vt 0.909091 0.272727
vt 0.909091 0.363636
vt 0.909091 0.454545
vt 0.909091 0.545455
vt 0.909091 0.636364
vt 0.909091 0.727273
vt 0.909091 0.818182
vt 1.000000 0.000000
vt 1.000000 0.090909
vt 1.000000 0.181818
vt 1.000000 0.272727
vt 1.000000 0.363636
vt 1.000000 0.454545
vt 1.000000 0.545455
vt 1.000000 0.636364
vt 1.000000 0.727273
vt 1.000000 0.818182
s 0
usemtl Empty
f 176/25/25 66/26/25 36/27/25 76/28/25
f 46/29/25 86/30/25 67/31/25 35/32/25
f 86/30/25 96/33/25 68/34/25 67/31/25
f 96/33/25 106/35/25 69/36/25 68/34/25
f 106/35/25 116/37/25 70/38/25 69/36/25
f 116/37/25 126/39/25 71/40/25 70/38/25
f 126/39/25 136/41/25 72/42/25 71/40/25
f 136/41/25 146/43/25 73/44/25 72/42/25
f 146/43/25 156/45/25 74/46/25 73/44/25
f 156/45/25 166/47/25 75/48/25 74/46/25
f 166/47/25 176/25/25 76/28/25 75/48/25
f 33/49/25 47/50/25 77/51/25 37/52/25
f 37/52/25 77/51/25 78/53/25 38/54/25
f 38/54/25 78/53/25 79/55/25 39/56/25
f 39/56/25 79/55/25 80/57/25 40/58/25
f 40/58/25 80/57/25 81/59/25 41/60/25
f 41/60/25 81/59/25 82/61/25 42/62/25
f 42/62/25 82/61/25 83/63/25 43/64/25
f 43/64/25 83/63/25 84/65/25 44/66/25
f 44/66/25 84/65/25 85/67/25 45/68/25
f 45/68/25 85/67/25 86/30/25 46/29/25
f 47/50/25 48/69/25 87/70/25 77/51/25
f 77/51/25 87/70/25 88/71/25 78/53/25
f 78/53/25 88/71/25 89/72/25 79/55/25
f 79/55/25 89/72/25 90/73/25 80/57/25
f 80/57/25 90/73/25 91/74/25 81/59/25
f 81/59/25 91/74/25 92/75/25 82/61/25
f 82/61/25 92/75/25 93/76/25 83/63/25
f 83/63/25 93/76/25 94/77/25 84/65/25
f 84/65/25 94/77/25 95/78/25 85/67/25
f 85/67/25 95/78/25 96/33/25 86/30/25
f 48/69/25 49/79/25 97/80/25 87/70/25
f 87/70/25 97/80/25 98/81/25 88/71/25
f 88/71/25 98/81/25 99/82/25 89/72/25
f 89/72/25 99/82/25 100/83/25 90/73/25
f 90/73/25 100/83/25 101/84/25 91/74/25
f 91/74/25 101/84/25 102/85/25 92/75/25
f 92/75/25 102/85/25 103/86/25 93/76/25
f 93/76/25 103/86/25 104/87/25 94/77/25
f 94/77/25 104/87/25 105/88/25 95/78/25
f 95/78/25 105/88/25 106/35/25 96/33/25
f 49/79/25 50/89/25 107/90/25 97/80/25
f 97/80/25 107/90/25 108/91/25 98/81/25
f 98/81/25 108/91/25 109/92/25 99/82/25
f 99/82/25 109/92/25 110/93/25 100/83/25
f 100/83/25 110/93/25 111/94/25 101/84/25
f 101/84/25 111/94/25 112/95/25 102/85/25
f 102/85/25 112/95/25 113/96/25 103/86/25
f 103/86/25 113/96/25 114/97/25 104/87/25
f 104/87/25 114/97/25 115/98/25 105/88/25
f 105/88/25 115/98/25 116/37/25 106/35/25
f 50/89/25 51/99/25 117/100/25 107/90/25
f 107/90/25 117/100/25 118/101/25 108/91/25
f 108/91/25 118/101/25 119/102/25 109/92/25
f 109/92/25 119/102/25 120/103/25 110/93/25
f 110/93/25 120/103/25 121/104/25 111/94/25
f 111/94/25 121/104/25 122/105/25 112/95/25
f 112/95/25 122/105/25 123/106/25 113/96/25
f 113/96/25 123/106/25 124/107/25 114/97/25
f 114/97/25 124/107/25 125/108/25 115/98/25
f 115/98/25 125/108/25 126/39/25 116/37/25
f 51/99/25 52/109/25 127/110/25 117/100/25
f 117/100/25 127/110/25 128/111/25 118/101/25
f 118/101/25 128/111/25 129/112/25 119/102/25
f 119/102/25 129/112/25 130/113/25 120/103/25
f 120/103/25 130/113/25 131/114/25 121/104/25
f 121/104/25 131/114/25 132/115/25 122/105/25
f 122/105/25 132/115/25 133/116/25 123/106/25
f 123/106/25 133/116/25 134/117/25 124/107/25
f 124/107/25 134/117/25 135/118/25 125/108/25
f 125/108/25 135/118/25 136/41/25 126/39/25
f 52/109/25 53/119/25 137/120/25 127/110/25
f 127/110/25 137/120/25 138/121/25 128/111/25
f 128/111/25 138/121/25 139/122/25 129/112/25
f 129/112/25 139/122/25 140/123/25 130/113/25
f 130/113/25 140/123/25 141/124/25 131/114/25
f 131/114/25 141/124/25 142/125/25 132/115/25
f 132/115/25 142/125/25 143/126/25 133/116/25
f 133/116/25 143/126/25 144/127/25 134/117/25
f 134/117/25 144/127/25 145/128/25 135/118/25
f 135/118/25 145/128/25 146/43/25 136/41/25
f 53/119/25 54/129/25 147/130/25 137/120/25
f 137/120/25 147/130/25 148/131/25 138/121/25
f 138/121/25 148/131/25 149/132/25 139/122/25
f 139/122/25 149/132/25 150/133/25 140/123/25
f 140/123/25 150/133/25 151/134/25 141/124/25
f 141/124/25 151/134/25 152/135/25 142/125/25
f 142/125/25 152/135/25 153/136/25 143/126/25
f 143/126/25 153/136/25 154/137/25 144/127/25
f 144/127/25 154/137/25 155/138/25 145/128/25
f 145/128/25 155/138/25 156/45/25 146/43/25
f 54/129/25 55/139/25 157/140/25 147/130/25
f 147/130/25 157/140/25 158/141/25 148/131/25
f 148/131/25 158/141/25 159/142/25 149/132/25
f 149/132/25 159/142/25 160/143/25 150/133/25
f 150/133/25 160/143/25 161/144/25 151/134/25
f 151/134/25 161/144/25 162/145/25 152/135/25
f 152/135/25 162/145/25 163/146/25 153/136/25
f 153/136/25 163/146/25 164/147/25 154/137/25
f 154/137/25 164/147/25 165/148/25 155/138/25
f 155/138/25 165/148/25 166/47/25 156/45/25
f 55/139/25 56/149/25 167/150/25 157/140/25
f 157/140/25 167/150/25 168/151/25 158/141/25
f 158/141/25 168/151/25 169/152/25 159/142/25
f 159/142/25 169/152/25 170/153/25 160/143/25
f 160/143/25 170/153/25 171/154/25 161/144/25
f 161/144/25 171/154/25 172/155/25 162/145/25
f 162/145/25 172/155/25 173/156/25 163/146/25
f 163/146/25 173/156/25 174/157/25 164/147/25
f 164/147/25 174/157/25 175/158/25 165/148/25
f 165/148/25 175/158/25 176/25/25 166/47/25
f 56/149/25 34/159/25 57/160/25 167/150/25
f 167/150/25 57/160/25 58/161/25 168/151/25
f 168/151/25 58/161/25 59/162/25 169/152/25
f 169/152/25 59/162/25 60/163/25 170/153/25
f 170/153/25 60/163/25 61/164/25 171/154/25
f 171/154/25 61/164/25 62/165/25 172/155/25
f 172/155/25 62/165/25 63/166/25 173/156/25
f 173/156/25 63/166/25 64/167/25 174/157/25
f 174/157/25 64/167/25 65/168/25 175/158/25
f 175/158/25 65/168/25 66/26/25 176/25/25
