# Blender 4.3.0
# www.blender.org
mtllib test2.mtl
o Plane
v 8.048188 -0.239046 14.148733
v -8.032195 -0.239041 14.148733
v 8.048188 -0.239046 -14.094355
v -8.032195 -0.239041 -14.094355
v 8.048188 -0.139046 14.148733
v -8.032195 -0.139041 14.148733
v 8.048188 -0.139046 -14.094355
v -8.032195 -0.139041 -14.094355
vn -0.0000 -1.0000 -0.0000
vn -0.0000 1.0000 -0.0000
vn 1.0000 -0.0000 -0.0000
vn -0.0000 -0.0000 1.0000
vn -1.0000 -0.0000 -0.0000
vn -0.0000 -0.0000 -1.0000
vt 0.003060 0.003060
vt 0.996940 0.003060
vt 0.996940 0.996940
vt 0.003060 0.996940
vt -0.006232 -0.002372
vt -0.006232 1.002372
vt 0.998511 1.002372
vt 0.998511 -0.002372
vt 0.000000 0.000000
vt 0.000000 1.000000
vt 1.000000 0.000000
vt 1.000000 1.000000
s 0
usemtl Material.001
f 1/1/1 2/2/1 4/3/1 3/4/1
f 5/5/2 7/6/2 8/7/2 6/8/2
f 1/9/3 3/10/3 7/10/3 5/9/3
f 2/11/4 1/9/4 5/9/4 6/11/4
f 4/12/5 2/11/5 6/11/5 8/12/5
f 3/10/6 4/12/6 8/12/6 7/10/6
o Plane.004
v -8.032195 12.738859 14.102251
v 8.048188 12.738859 14.102251
v -8.032195 -0.292781 14.102251
v 8.048188 -0.292781 14.102251
v -8.032195 12.738859 14.002252
v 8.048188 12.738859 14.002252
v -8.032195 -0.292781 14.002251
v 8.048188 -0.292781 14.002251
vn -0.0000 -0.0000 1.0000
vn -0.0000 -0.0000 -1.0000
vn -1.0000 -0.0000 -0.0000
vn -0.0000 1.0000 -0.0000
vn 1.0000 -0.0000 -0.0000
vn -0.0000 -1.0000 -0.0000
vt 0.199527 0.199527
vt 0.800473 0.199527
vt 0.800473 0.800473
vt 0.199527 0.800473
s 0
usemtl Material.004
f 9/13/7 11/16/7 12/15/7 10/14/7
f 13/13/8 14/14/8 16/15/8 15/16/8
f 9/13/9 13/13/9 15/16/9 11/16/9
f 10/14/10 14/14/10 13/13/10 9/13/10
f 12/15/11 16/15/11 14/14/11 10/14/11
f 11/16/12 15/16/12 16/15/12 12/15/12
o Plane.005
v -8.032195 12.738859 -13.966230
v 8.048188 12.738859 -13.966230
v -8.032195 -0.292781 -13.966230
v 8.048188 -0.292781 -13.966230
v -8.032195 12.738859 -14.066230
v 8.048188 12.738859 -14.066230
v -8.032195 -0.292781 -14.066231
v 8.048188 -0.292781 -14.066231
vn -0.0000 -0.0000 1.0000
vn -0.0000 -0.0000 -1.0000
vn -1.0000 -0.0000 -0.0000
vn -0.0000 1.0000 -0.0000
vn 1.0000 -0.0000 -0.0000
vn -0.0000 -1.0000 -0.0000
vt 0.000000 0.000000
vt 1.000000 0.000000
vt 1.000000 1.000000
vt 0.000000 1.000000
s 0
usemtl Material.002
f 17/17/13 19/20/13 20/19/13 18/18/13
f 21/17/14 22/18/14 24/19/14 23/20/14
f 17/17/15 21/17/15 23/20/15 19/20/15
f 18/18/16 22/18/16 21/17/16 17/17/16
f 20/19/17 24/19/17 22/18/17 18/18/17
f 19/20/18 23/20/18 24/19/18 20/19/18
o Plane.006
v -8.032195 12.455827 14.148733
v 8.048188 12.455827 14.148733
v -8.032195 12.455827 -14.094355
v 8.048188 12.455827 -14.094355
v -8.032195 12.355826 14.148733
v 8.048188 12.355826 14.148733
v -8.032195 12.355826 -14.094355
v 8.048188 12.355826 -14.094355
vn -0.0000 1.0000 -0.0000
vn -0.0000 -1.0000 -0.0000
vn -1.0000 -0.0000 -0.0000
vn -0.0000 -0.0000 1.0000
vn 1.0000 -0.0000 -0.0000
vn -0.0000 -0.0000 -1.0000
vt 0.000000 0.000000
vt 1.000000 0.000000
vt 1.000000 1.000000
vt 0.000000 1.000000
s 0
usemtl Material.003
f 25/21/19 26/22/19 28/23/19 27/24/19
f 29/21/20 31/24/20 32/23/20 30/22/20
f 25/21/21 27/24/21 31/24/21 29/21/21
f 26/22/22 25/21/22 29/21/22 30/22/22
f 28/23/23 26/22/23 30/22/23 32/23/23
f 27/24/24 28/23/24 32/23/24 31/24/24
